PathFileType	4	(X/Y/Z)	/Users/itak/Documents/Research/Walk-IL/dataset/trc/00549_00009.trc
DataRate	CameraRate	NumFrames	NumMarkers	Units	OrigDataRate	OrigDataStartFrame	OrigNumFrames
100.000000	100.000000	4	53	mm	100.000000	485	555
Frame#	Time	RPSI			LPSI			L3			STRN			T10			C7			CLAV			RBAK			LBAK			LSHO			LUPA			LAEL			LAOL			LWTS			LWPS			LFRA			LIFD			LHPS			LHTS			RSHO			RUPA			RAEL			RAOL			RWTS			RWPS			RFRA			RIFD			RHTS			RHPS			RBHD			LFHD			RFHD			LBHD			LHIP			RHIP			RASI			LASI			LKNE			LTHI			LANK			LTIP			LTOE			LMT1			LMT5			LHEE			RKNE			RTHI			RANK			RTIP			RTOE			RMT1			RMT5			RHEE			
		X1	Y1	Z1	X2	Y2	Z2	X3	Y3	Z3	X4	Y4	Z4	X5	Y5	Z5	X6	Y6	Z6	X7	Y7	Z7	X8	Y8	Z8	X9	Y9	Z9	X10	Y10	Z10	X11	Y11	Z11	X12	Y12	Z12	X13	Y13	Z13	X14	Y14	Z14	X15	Y15	Z15	X16	Y16	Z16	X17	Y17	Z17	X18	Y18	Z18	X19	Y19	Z19	X20	Y20	Z20	X21	Y21	Z21	X22	Y22	Z22	X23	Y23	Z23	X24	Y24	Z24	X25	Y25	Z25	X26	Y26	Z26	X27	Y27	Z27	X28	Y28	Z28	X29	Y29	Z29	X30	Y30	Z30	X31	Y31	Z31	X32	Y32	Z32	X33	Y33	Z33	X34	Y34	Z34	X35	Y35	Z35	X36	Y36	Z36	X37	Y37	Z37	X38	Y38	Z38	X39	Y39	Z39	X40	Y40	Z40	X41	Y41	Z41	X42	Y42	Z42	X43	Y43	Z43	X44	Y44	Z44	X45	Y45	Z45	X46	Y46	Z46	X47	Y47	Z47	X48	Y48	Z48	X49	Y49	Z49	X50	Y50	Z50	X51	Y51	Z51	X52	Y52	Z52	X53	Y53	Z53	

486	4.850000000000001	1318.442260742188	1013.929992675781	294.1040954589844	1329.9521484375	1017.041076660156	161.1555023193359	1326.08984375	1108.108764648438	224.0889739990234	1551.858764648438	1301.179565429688	229.4150085449219	1312.295288085938	1233.256958007812	221.3468017578125	1354.09033203125	1507.947875976562	235.4591827392578	1529.64697265625	1411.446533203125	229.493896484375	1283.595336914062	1382.3349609375	318.7261352539062	1324.319458007812	1454.0380859375	143.2377777099609	1422.271240234375	1480.559448242188	64.32131195068359	1411.438232421875	1353.528198242188	-14.79782867431641	1418.637084960938	1129.755493164062	-32.93347549438477	1333.797241210938	1128.93603515625	20.5604248046875	1485.352905273438	875.5389404296875	10.52547645568848	1437.283081054688	859.9557495117188	-61.00396347045898	1433.188232421875	1041.290283203125	-40.62678909301758	1457.387939453125	707.2067260742188	2.51206111907959	1436.547119140625	799.3153076171875	-52.88677215576172	1488.917358398438	796.4693603515625	-9.307211875915527	1410.48779296875	1470.97802734375	392.422119140625	1389.9755859375	1406.7255859375	458.992431640625	1383.485107421875	1118.433959960938	508.1354675292969	1329.2373046875	1101.3916015625	478.5025634765625	1518.699462890625	897.7667236328125	480.5635681152344	1470.463012695312	878.5101928710938	544.1583862304688	1392.551513671875	1063.073974609375	517.5257568359375	1531.943237304688	723.3486328125	491.3954467773438	1545.6171875	806.45068359375	497.6213073730469	1486.921020507812	803.8397827148438	543.1353149414062	1415.318481445312	1689.5205078125	291.6854858398438	1596.165283203125	1716.476806640625	192.9773864746094	1548.5576171875	1712.6904296875	329.887939453125	1476.429931640625	1691.895874023438	138.4586486816406	1473.456176757812	943.2130737304688	35.11980056762695	1436.468017578125	945.1522827148438	423.702880859375	1523.674560546875	978.1841430664062	372.6844787597656	1541.862060546875	969.2425537109375	97.21321105957031	1486.987060546875	497.9802551269531	111.9384536743164	1491.85302734375	662.0203857421875	70.58477783203125	1409.576049804688	31.19699668884277	126.7820358276367	1426.291625976562	252.4473419189453	109.5345687866211	1615.213623046875	40.98881149291992	198.2037811279297	1540.972778320312	44.8803825378418	228.3803863525391	1531.219604492188	34.20124053955078	119.7119674682617	1338.527221679688	37.56888961791992	176.8049926757812	1482.122680664062	501.9707641601562	380.9590759277344	1483.04248046875	790.396728515625	419.7875061035156	1386.587158203125	39.01053237915039	364.9428405761719	1481.775146484375	357.5986022949219	367.7293090820312	1608.719848632812	40.84331130981445	332.119384765625	1545.912231445312	42.14165878295898	288.5759582519531	1517.915283203125	39.73006439208984	390.4949951171875	1335.8037109375	34.03581237792969	306.5340881347656	
487	4.86	1318.464965820312	1013.825134277344	294.73291015625	1330.047973632812	1017.026611328125	161.7560424804688	1326.205444335938	1108.006958007812	224.633544921875	1551.981201171875	1301.184326171875	229.8083038330078	1312.632202148438	1233.17138671875	221.8077392578125	1354.175415039062	1507.920288085938	235.9149780273438	1529.73095703125	1411.46533203125	229.8992614746094	1283.761108398438	1382.299926757812	319.2513427734375	1324.263793945312	1453.8984375	143.8070373535156	1422.202514648438	1480.559936523438	64.74231719970703	1411.533447265625	1353.537841796875	-14.37320423126221	1419.535400390625	1129.829956054688	-32.7154426574707	1334.640258789062	1128.590087890625	20.58000755310059	1487.990356445312	876.2245483398438	10.78302097320557	1440.031616210938	860.1801147460938	-60.70231628417969	1434.602661132812	1041.455810546875	-40.40676879882812	1461.531982421875	707.6133422851562	2.899575710296631	1439.862182617188	799.5452880859375	-52.59912872314453	1492.247924804688	797.1868896484375	-9.004416465759277	1410.649047851562	1470.934448242188	392.8788452148438	1390.228515625	1406.625244140625	459.4537658691406	1383.92236328125	1118.245361328125	508.3415222167969	1329.688110351562	1101.196166992188	478.7868347167969	1519.371337890625	897.8203125	480.2816162109375	1471.2548828125	878.3942260742188	543.888916015625	1393.08349609375	1062.903564453125	517.6781616210938	1532.83447265625	723.4144897460938	490.8875427246094	1546.41943359375	806.5174560546875	497.1705627441406	1487.7607421875	803.6722412109375	542.7252807617188	1415.32958984375	1689.543212890625	292.0159912109375	1596.239501953125	1716.473999023438	193.434326171875	1548.4091796875	1712.729858398438	330.3058471679688	1476.567993164062	1691.831665039062	138.8236541748047	1473.681640625	943.2525634765625	35.43790054321289	1436.913696289062	945.0152587890625	424.2074890136719	1524.031982421875	978.1696166992188	373.0547180175781	1542.03271484375	969.251220703125	97.56082153320312	1486.934936523438	497.9620361328125	112.2389678955078	1491.90966796875	662.0519409179688	70.87146759033203	1409.54736328125	31.20475959777832	126.7835693359375	1426.213256835938	252.4582061767578	109.6798553466797	1615.213745117188	40.99625396728516	198.2024536132812	1540.996704101562	44.90838241577148	228.3532562255859	1531.21533203125	34.20446395874023	119.7251892089844	1338.534423828125	37.58840560913086	176.8043518066406	1482.293579101562	501.9141540527344	381.1775207519531	1483.717163085938	790.3604736328125	420.1684875488281	1386.59375	38.98586654663086	364.9338073730469	1481.885864257812	357.57080078125	367.8139953613281	1608.713989257812	40.85285568237305	332.1157531738281	1545.907958984375	42.13561630249023	288.5682678222656	1517.909912109375	39.73179626464844	390.4862976074219	1335.806396484375	34.02060317993164	306.5305480957031	
488	4.87	1318.327270507812	1013.75439453125	295.4178771972656	1330.052856445312	1017.034973144531	162.3683929443359	1326.326904296875	1107.90966796875	225.1766357421875	1552.088134765625	1301.190307617188	230.1768035888672	1312.9755859375	1233.092651367188	222.2570037841797	1354.2470703125	1507.8916015625	236.3776397705078	1529.811157226562	1411.487060546875	230.2877349853516	1283.912963867188	1382.26513671875	319.7647705078125	1324.184204101562	1453.762817382812	144.3827056884766	1422.112670898438	1480.57373046875	65.16157531738281	1411.62548828125	1353.559326171875	-13.95918941497803	1420.501098632812	1129.925170898438	-32.53151702880859	1335.536499023438	1128.227172851562	20.55953788757324	1490.827026367188	876.9933471679688	11.02197933197021	1443.00146484375	860.4527587890625	-60.41476058959961	1436.128173828125	1041.659790039062	-40.21500396728516	1466.019409179688	708.1019287109375	3.255783557891846	1443.439575195312	799.8304443359375	-52.32242202758789	1495.839965820312	797.9989013671875	-8.711913108825684	1410.8447265625	1470.890869140625	393.3269958496094	1390.513427734375	1406.531982421875	459.9082641601562	1384.37109375	1118.062255859375	508.544189453125	1330.1552734375	1101.010009765625	479.095458984375	1520.040405273438	897.8613891601562	479.9862365722656	1472.052856445312	878.264892578125	543.6170043945312	1393.637329101562	1062.726684570312	517.8143310546875	1533.686889648438	723.4529418945312	490.3392028808594	1547.206787109375	806.5392456054688	496.7012329101562	1488.606689453125	803.466552734375	542.3109130859375	1415.334838867188	1689.564575195312	292.3585510253906	1596.281372070312	1716.482788085938	193.8484039306641	1548.275390625	1712.767211914062	330.6861267089844	1476.649780273438	1691.772583007812	139.2013092041016	1473.875610351562	943.2939453125	35.72946166992188	1437.40673828125	944.8695678710938	424.6531066894531	1524.370361328125	978.166259765625	373.4021606445312	1542.1748046875	969.263916015625	97.88457489013672	1486.922729492188	497.9634704589844	112.5245742797852	1491.976684570312	662.0873413085938	71.16056060791016	1409.494018554688	31.20650291442871	126.7881393432617	1426.157958984375	252.4583282470703	109.8460998535156	1615.2138671875	41.00368118286133	198.2021026611328	1541.013427734375	44.92801284790039	228.3341979980469	1531.2119140625	34.20974349975586	119.7410507202148	1338.546142578125	37.62097930908203	176.7974853515625	1482.437255859375	501.8573608398438	381.3879089355469	1484.372924804688	790.335205078125	420.5266418457031	1386.593872070312	38.95963668823242	364.9249267578125	1481.9853515625	357.5516052246094	367.9000244140625	1608.705078125	40.86528778076172	332.1103210449219	1545.901977539062	42.12781143188477	288.5592651367188	1517.901245117188	39.73281097412109	390.4753723144531	1335.811889648438	33.99955368041992	306.5247497558594	
489	4.88	1318.0830078125	1013.71533203125	296.1330261230469	1330.014038085938	1017.053649902344	162.9679260253906	1326.453125	1107.820068359375	225.7198638916016	1552.181030273438	1301.197387695312	230.5262908935547	1313.279663085938	1233.020629882812	222.7125549316406	1354.304321289062	1507.859130859375	236.84814453125	1529.887939453125	1411.510131835938	230.6513061523438	1284.048828125	1382.224731445312	320.2679443359375	1324.088989257812	1453.637451171875	144.9585876464844	1422.00341796875	1480.5947265625	65.5869140625	1411.716674804688	1353.590942382812	-13.56054496765137	1421.5283203125	1130.039916992188	-32.38546371459961	1336.479248046875	1127.852294921875	20.50992774963379	1493.84326171875	877.8438110351562	11.24476909637451	1446.171264648438	860.7733764648438	-60.13349914550781	1437.7578125	1041.902954101562	-40.05844497680664	1470.825805664062	708.6832885742188	3.578511953353882	1447.256225585938	800.1748657226562	-52.05350875854492	1499.676635742188	798.9088745117188	-8.440790176391602	1411.07373046875	1470.847045898438	393.7654724121094	1390.822631835938	1406.444580078125	460.3550415039062	1384.835571289062	1117.888671875	508.7453308105469	1330.632568359375	1100.833251953125	479.425048828125	1520.705444335938	897.8873291015625	479.6830749511719	1472.851806640625	878.1273193359375	543.350830078125	1394.2119140625	1062.548706054688	517.9341430664062	1534.511352539062	723.46142578125	489.7584533691406	1547.983154296875	806.5245971679688	496.2158813476562	1489.461303710938	803.2415771484375	541.8967895507812	1415.335327148438	1689.583129882812	292.7066040039062	1596.295043945312	1716.503295898438	194.2242279052734	1548.160766601562	1712.803588867188	331.0309753417969	1476.682495117188	1691.718872070312	139.5896453857422	1474.022338867188	943.33447265625	36.00858688354492	1438.0126953125	944.71240234375	425.0061645507812	1524.684692382812	978.1755981445312	373.732421875	1542.288452148438	969.2816772460938	98.18930053710938	1486.950439453125	497.9818725585938	112.7954483032227	1492.054321289062	662.1278686523438	71.44578552246094	1409.4228515625	31.20384216308594	126.794548034668	1426.131103515625	252.4518432617188	110.0264434814453	1615.2138671875	41.00999450683594	198.2034759521484	1541.023681640625	44.93989562988281	228.3230285644531	1531.209594726562	34.21755218505859	119.7590789794922	1338.561767578125	37.66674041748047	176.7836608886719	1482.555908203125	501.7998657226562	381.5923767089844	1485.004760742188	790.3225708007812	420.8676452636719	1386.58740234375	38.93203735351562	364.9175720214844	1482.078002929688	357.5368041992188	367.9920043945312	1608.692626953125	40.87932205200195	332.1023559570312	1545.894165039062	42.11916732788086	288.5489807128906	1517.889892578125	39.73333358764648	390.4627075195312	1335.818481445312	33.9741325378418	306.5176086425781	
